<svg fill="none" height="20" viewBox="0 0 21 20" width="21" xmlns="http://www.w3.org/2000/svg">
    <g id="Icons">
        <path
            d="M13 8.75C13 9.12084 12.89 9.48335 12.684 9.79169C12.478 10.1 12.1851 10.3404 11.8425 10.4823C11.4999 10.6242 11.1229 10.6613 10.7592 10.589C10.3955 10.5166 10.0614 10.338 9.79917 10.0758C9.53695 9.8136 9.35837 9.47951 9.28603 9.11579C9.21368 8.75208 9.25081 8.37508 9.39273 8.03247C9.53464 7.68986 9.77496 7.39702 10.0833 7.19099C10.3916 6.98497 10.7542 6.875 11.125 6.875C11.6223 6.875 12.0992 7.07254 12.4508 7.42417C12.8025 7.77581 13 8.25272 13 8.75ZM18 3.125V16.875C18 17.2065 17.8683 17.5245 17.6339 17.7589C17.3995 17.9933 17.0815 18.125 16.75 18.125H5.5C5.16848 18.125 4.85054 17.9933 4.61612 17.7589C4.3817 17.5245 4.25 17.2065 4.25 16.875V15H3C2.83424 15 2.67527 14.9342 2.55806 14.8169C2.44085 14.6997 2.375 14.5408 2.375 14.375C2.375 14.2092 2.44085 14.0503 2.55806 13.9331C2.67527 13.8158 2.83424 13.75 3 13.75H4.25V10.625H3C2.83424 10.625 2.67527 10.5592 2.55806 10.4419C2.44085 10.3247 2.375 10.1658 2.375 10C2.375 9.83424 2.44085 9.67527 2.55806 9.55806C2.67527 9.44085 2.83424 9.375 3 9.375H4.25V6.25H3C2.83424 6.25 2.67527 6.18415 2.55806 6.06694C2.44085 5.94973 2.375 5.79076 2.375 5.625C2.375 5.45924 2.44085 5.30027 2.55806 5.18306C2.67527 5.06585 2.83424 5 3 5H4.25V3.125C4.25 2.79348 4.3817 2.47554 4.61612 2.24112C4.85054 2.0067 5.16848 1.875 5.5 1.875H16.75C17.0815 1.875 17.3995 2.0067 17.6339 2.24112C17.8683 2.47554 18 2.79348 18 3.125ZM15.375 12.75C14.8216 12.008 14.0836 11.4238 13.2344 11.0555C13.6998 10.6306 14.0258 10.0749 14.1697 9.4614C14.3137 8.84789 14.2688 8.2052 14.0409 7.61767C13.813 7.03014 13.4129 6.52523 12.8929 6.1692C12.373 5.81316 11.7575 5.62265 11.1273 5.62265C10.4972 5.62265 9.88173 5.81316 9.36178 6.1692C8.84182 6.52523 8.44166 7.03014 8.21379 7.61767C7.98593 8.2052 7.94102 8.84789 8.08495 9.4614C8.22888 10.0749 8.55493 10.6306 9.02031 11.0555C8.1694 11.4231 7.42972 12.0074 6.875 12.75C6.82575 12.8157 6.78992 12.8904 6.76955 12.9699C6.74918 13.0494 6.74467 13.1321 6.75628 13.2134C6.76789 13.2946 6.79539 13.3728 6.8372 13.4434C6.87902 13.5141 6.93434 13.5758 7 13.625C7.06566 13.6742 7.14038 13.7101 7.21989 13.7304C7.2994 13.7508 7.38214 13.7553 7.46339 13.7437C7.54464 13.7321 7.62281 13.7046 7.69343 13.6628C7.76406 13.621 7.82575 13.5657 7.875 13.5C8.25341 12.9955 8.74409 12.5859 9.3082 12.3039C9.8723 12.0218 10.4943 11.875 11.125 11.875C11.7557 11.875 12.3777 12.0218 12.9418 12.3039C13.5059 12.5859 13.9966 12.9955 14.375 13.5C14.4745 13.6326 14.6225 13.7203 14.7866 13.7437C14.9507 13.7672 15.1174 13.7245 15.25 13.625C15.3826 13.5255 15.4703 13.3775 15.4937 13.2134C15.5172 13.0493 15.4745 12.8826 15.375 12.75Z"
            fill="#FBFBFB" id="Vector" />
    </g>
</svg>
